<svg width="105" height="39" viewBox="0 0 105 39" fill="none" xmlns="http://www.w3.org/2000/svg">
<path d="M0.488 0.655999H4.568L10.04 7.016L15.536 0.631999H19.616V17H15.536V7.856L10.016 14.264L4.568 7.928V17H0.488V0.655999ZM27.4616 17H23.3096V0.655999H27.4136L27.4616 17ZM31.1546 0.631999H47.5466V7.448H43.4186V4.736H35.2586V12.896H47.5466V17H31.1546V0.631999ZM51.2339 0.607999H55.3379V6.056H63.4979V0.631999H67.6499V17H63.4979V10.16H55.3379V16.976H51.2339V0.607999ZM0.488 21.656H4.568L10.04 28.016L15.536 21.632H19.616V38H15.536V28.856L10.016 35.264L4.568 28.928V38H0.488V21.656ZM23.3096 21.656H35.6216V25.736H27.4136V27.104H34.2536V31.184H27.4136V33.92H35.6216V38.024H23.3336V38H23.3096V21.656ZM38.8421 21.656L42.9221 21.632H42.9461V21.656L51.1061 30.848V21.632H55.1861L55.2581 38H51.1061L42.9461 28.808V38H38.8421V21.656ZM73.2249 21.632V25.712H67.8249V38H63.6729V25.712H58.2249V21.632H73.2249ZM76.2117 21.656H88.5237V25.736H80.3157V27.104H87.1557V31.184H80.3157V33.92H88.5237V38.024H76.2357V38H76.2117V21.656ZM91.7442 21.656H104.056V25.736H95.8482V27.104H102.688V31.184H95.8482V33.92H104.056V38.024H91.7682V38H91.7442V21.656Z" fill="#6E73FF"/>
</svg>
