<svg width="196" height="90" viewBox="0 0 196 90" fill="none" xmlns="http://www.w3.org/2000/svg">
<path d="M50.488 26.656H54.568L60.04 33.016L65.536 26.632H69.616V43H65.536V33.856L60.016 40.264L54.568 33.928V43H50.488V26.656ZM77.4616 43H73.3096V26.656H77.4136L77.4616 43ZM81.1546 26.632H97.5466V33.448H93.4186V30.736H85.2586V38.896H97.5466V43H81.1546V26.632ZM101.234 26.608H105.338V32.056H113.498V26.632H117.65V43H113.498V36.16H105.338V42.976H101.234V26.608ZM50.488 47.656H54.568L60.04 54.016L65.536 47.632H69.616V64H65.536V54.856L60.016 61.264L54.568 54.928V64H50.488V47.656ZM73.3096 47.656H85.6216V51.736H77.4136V53.104H84.2536V57.184H77.4136V59.92H85.6216V64.024H73.3336V64H73.3096V47.656ZM88.8421 47.656L92.9221 47.632H92.9461V47.656L101.106 56.848V47.632H105.186L105.258 64H101.106L92.9461 54.808V64H88.8421V47.656ZM123.225 47.632V51.712H117.825V64H113.673V51.712H108.225V47.632H123.225ZM126.212 47.656H138.524V51.736H130.316V53.104H137.156V57.184H130.316V59.92H138.524V64.024H126.236V64H126.212V47.656ZM141.744 47.656H154.056V51.736H145.848V53.104H152.688V57.184H145.848V59.92H154.056V64.024H141.768V64H141.744V47.656Z" fill="#6E73FF"/>
</svg>
