<svg width="209" height="77" viewBox="0 0 209 77" fill="none" xmlns="http://www.w3.org/2000/svg">
<path d="M0.976 0.311997H9.136L20.08 13.032L31.072 0.263998H39.232V33H31.072V14.712L20.032 27.528L9.136 14.856V33H0.976V0.311997ZM54.9231 33H46.6191V0.311997H54.8271L54.9231 33ZM62.3091 0.263998H95.0931V13.896H86.8371V8.472H70.5171V24.792H95.0931V33H62.3091V0.263998ZM102.468 0.215999H110.676V11.112H126.996V0.263998H135.3V33H126.996V19.32H110.676V32.952H102.468V0.215999ZM0.976 43.312H9.136L20.08 56.032L31.072 43.264H39.232V76H31.072V57.712L20.032 70.528L9.136 57.856V76H0.976V43.312ZM46.6191 43.312H71.2431V51.472H54.8271V54.208H68.5071V62.368H54.8271V67.84H71.2431V76.048H46.6671V76H46.6191V43.312ZM77.6841 43.312L85.8441 43.264H85.8921V43.312L102.212 61.696V43.264H110.372L110.516 76H102.212L85.8921 57.616V76H77.6841V43.312ZM146.45 43.264V51.424H135.65V76H127.346V51.424H116.45V43.264H146.45ZM152.423 43.312H177.047V51.472H160.631V54.208H174.311V62.368H160.631V67.84H177.047V76.048H152.471V76H152.423V43.312ZM183.488 43.312H208.112V51.472H191.696V54.208H205.376V62.368H191.696V67.84H208.112V76.048H183.536V76H183.488V43.312Z" fill="#6E73FF"/>
</svg>
